<svg width="1369" height="186" viewBox="0 0 1369 186" version="1.1" xmlns="http://www.w3.org/2000/svg" xmlns:xlink="http://www.w3.org/1999/xlink">
<title>Group 2</title>
<desc>Created using Figma</desc>
<g id="Canvas" transform="translate(908 945)">
<g id="Group 2">
<g id="Ellipse">
<mask id="mask0_outline_ins">
<use xlink:href="#path0_fill" fill="white" transform="translate(-78 -945)"/>
</mask>
<g mask="url(#mask0_outline_ins)">
<use xlink:href="#path1_stroke_2x" transform="translate(-78 -945)" fill="#F2F2F2"/>
</g>
</g>
<g id="Rectangle">
<mask id="mask1_outline_ins">
<use xlink:href="#path2_fill" fill="white" transform="translate(-48 -923)"/>
</mask>
<g mask="url(#mask1_outline_ins)">
<use xlink:href="#path3_stroke_2x" transform="translate(-48 -923)" fill="#F2F2F2"/>
</g>
</g>
<g id="Rectangle">
<mask id="mask2_outline_ins">
<use xlink:href="#path4_fill" fill="white" transform="translate(-7.75 -929)"/>
</mask>
<g mask="url(#mask2_outline_ins)">
<use xlink:href="#path5_stroke_2x" transform="translate(-7.75 -929)" fill="#F2F2F2"/>
</g>
</g>
<g id="Rectangle">
<mask id="mask3_outline_ins">
<use xlink:href="#path4_fill" fill="white" transform="translate(32.5 -929)"/>
</mask>
<g mask="url(#mask3_outline_ins)">
<use xlink:href="#path5_stroke_2x" transform="translate(32.5 -929)" fill="#F2F2F2"/>
</g>
</g>
<g id="Rectangle">
<mask id="mask4_outline_ins">
<use xlink:href="#path2_fill" fill="white" transform="translate(72.75 -923)"/>
</mask>
<g mask="url(#mask4_outline_ins)">
<use xlink:href="#path3_stroke_2x" transform="translate(72.75 -923)" fill="#F2F2F2"/>
</g>
</g>
<g id="Ellipse 2.1">
<use xlink:href="#path6_fill" transform="matrix(0.920505 0.390731 -0.390731 0.920505 44.9543 -860)" fill="#F2F2F2"/>
</g>
<g id="Ellipse 2.3">
<use xlink:href="#path7_fill" transform="matrix(0.83867 0.544639 -0.544639 0.83867 75.0192 -868.841)" fill="#F2F2F2"/>
</g>
<g id="Ellipse 2.2">
<use xlink:href="#path8_fill" transform="matrix(0.985022 -0.172427 0.210988 0.977489 20.8685 -844.607)" fill="#F2F2F2"/>
</g>
<g id="Ellipse 2.4">
<use xlink:href="#path8_fill" transform="matrix(0.985022 0.172427 -0.210988 0.977489 -38.8033 -860)" fill="#F2F2F2"/>
</g>
<g id="W3rdOfM">
<use xlink:href="#path9_fill" transform="translate(-913 -968)" fill="#F2F2F2"/>
</g>
<g id="uth">
<use xlink:href="#path10_fill" transform="translate(149 -968)" fill="#F2F2F2"/>
</g>
</g>
</g>
<defs>
<path id="path0_fill" d="M 221 76.5C 221 118.75 171.527 153 110.5 153C 49.4725 153 0 118.75 0 76.5C 0 34.2502 49.4725 0 110.5 0C 171.527 0 221 34.2502 221 76.5Z"/>
<path id="path1_stroke_2x" d="M 195 76.5C 195 86.6812 189.067 98.6723 173.836 109.217C 158.707 119.69 136.394 127 110.5 127L 110.5 179C 145.633 179 178.57 169.184 203.435 151.971C 228.197 134.827 247 108.569 247 76.5L 195 76.5ZM 110.5 127C 84.6055 127 62.293 119.69 47.1642 109.217C 31.9335 98.6723 26 86.6812 26 76.5L -26 76.5C -26 108.569 -7.1972 134.827 17.5652 151.971C 42.4296 169.184 75.367 179 110.5 179L 110.5 127ZM 26 76.5C 26 66.3188 31.9335 54.3277 47.1642 43.7833C 62.293 33.3095 84.6055 26 110.5 26L 110.5 -26C 75.367 -26 42.4296 -16.1844 17.5652 1.02933C -7.1972 18.1726 -26 44.4315 -26 76.5L 26 76.5ZM 110.5 26C 136.394 26 158.707 33.3095 173.836 43.7833C 189.067 54.3277 195 66.3188 195 76.5L 247 76.5C 247 44.4315 228.197 18.1726 203.435 1.02933C 178.57 -16.1844 145.633 -26 110.5 -26L 110.5 26Z"/>
<path id="path2_fill" d="M 0 9C 0 4.02944 4.02944 0 9 0L 31.25 0C 36.2206 0 40.25 4.02944 40.25 9L 40.25 32C 40.25 36.9706 36.2206 41 31.25 41L 9 41C 4.02944 41 0 36.9706 0 32L 0 9Z"/>
<path id="path3_stroke_2x" d="M 9 4L 31.25 4L 31.25 -4L 9 -4L 9 4ZM 36.25 9L 36.25 32L 44.25 32L 44.25 9L 36.25 9ZM 31.25 37L 9 37L 9 45L 31.25 45L 31.25 37ZM 4 32L 4 9L -4 9L -4 32L 4 32ZM 9 37C 6.23858 37 4 34.7614 4 32L -4 32C -4 39.1797 1.8203 45 9 45L 9 37ZM 36.25 32C 36.25 34.7614 34.0114 37 31.25 37L 31.25 45C 38.4297 45 44.25 39.1797 44.25 32L 36.25 32ZM 31.25 4C 34.0114 4 36.25 6.23858 36.25 9L 44.25 9C 44.25 1.8203 38.4297 -4 31.25 -4L 31.25 4ZM 9 -4C 1.8203 -4 -4 1.8203 -4 9L 4 9C 4 6.23858 6.23858 4 9 4L 9 -4Z"/>
<path id="path4_fill" d="M 0 9C 0 4.02944 4.02944 0 9 0L 31.25 0C 36.2206 0 40.25 4.02944 40.25 9L 40.25 38C 40.25 42.9706 36.2206 47 31.25 47L 9 47C 4.02944 47 0 42.9706 0 38L 0 9Z"/>
<path id="path5_stroke_2x" d="M 9 4L 31.25 4L 31.25 -4L 9 -4L 9 4ZM 36.25 9L 36.25 38L 44.25 38L 44.25 9L 36.25 9ZM 31.25 43L 9 43L 9 51L 31.25 51L 31.25 43ZM 4 38L 4 9L -4 9L -4 38L 4 38ZM 9 43C 6.23858 43 4 40.7614 4 38L -4 38C -4 45.1797 1.8203 51 9 51L 9 43ZM 36.25 38C 36.25 40.7614 34.0114 43 31.25 43L 31.25 51C 38.4297 51 44.25 45.1797 44.25 38L 36.25 38ZM 31.25 4C 34.0114 4 36.25 6.23858 36.25 9L 44.25 9C 44.25 1.8203 38.4297 -4 31.25 -4L 31.25 4ZM 9 -4C 1.8203 -4 -4 1.8203 -4 9L 4 9C 4 6.23858 6.23858 4 9 4L 9 -4Z"/>
<path id="path6_fill" d="M 113.203 21.6956C 113.203 33.6777 87.8617 43.3911 56.6015 43.3911C 25.3414 43.3911 0 33.6777 0 21.6956C 0 9.71343 25.3414 0 56.6015 0C 87.8617 0 113.203 9.71343 113.203 21.6956Z"/>
<path id="path7_fill" d="M 113.78 28.4768C 113.78 44.2042 88.3091 56.9537 56.8898 56.9537C 25.4704 56.9537 0 44.2042 0 28.4768C 0 12.7495 25.4704 0 56.8898 0C 88.3091 0 113.78 12.7495 113.78 28.4768Z"/>
<path id="path8_fill" d="M 89.2719 21.7942C 89.2719 33.8308 69.2877 43.5884 44.6359 43.5884C 19.9842 43.5884 0 33.8308 0 21.7942C 0 9.75759 19.9842 0 44.6359 0C 69.2877 0 89.2719 9.75759 89.2719 21.7942Z"/>
<path id="path9_fill" d="M 52.772 156L 28.891 156C 26.7757 156 24.9943 155.388 23.547 154.163C 22.211 152.827 21.4317 151.324 21.209 149.654L 5.845 43.275L 5.845 42.774C 5.845 41.772 6.179 40.937 6.847 40.269C 7.62633 39.4897 8.517 39.1 9.519 39.1L 40.581 39.1C 44.255 39.1 46.259 40.603 46.593 43.609L 52.271 90.703L 59.118 69.828C 60.2313 66.5993 62.124 64.985 64.796 64.985L 81.83 64.985C 84.502 64.985 86.3947 66.5993 87.508 69.828L 94.355 90.536L 100.033 43.609C 100.367 40.603 102.371 39.1 106.045 39.1L 137.107 39.1C 138.109 39.1 138.944 39.4897 139.612 40.269C 140.391 40.937 140.781 41.772 140.781 42.774L 140.781 43.275L 125.417 149.654C 125.194 151.324 124.359 152.827 122.912 154.163C 121.576 155.388 119.85 156 117.735 156L 93.854 156C 90.4027 156 88.1203 154.497 87.007 151.491L 73.313 117.256L 59.619 151.491C 58.5057 154.497 56.2233 156 52.772 156ZM 263.848 119.427C 263.848 130.894 258.727 140.135 248.484 147.149C 238.242 154.163 225.16 157.67 209.239 157.67C 199.776 157.67 191.315 156.501 183.855 154.163C 176.507 151.825 170.829 148.819 166.821 145.145C 158.917 137.908 154.964 130.505 154.964 122.934C 154.964 121.932 155.298 121.097 155.966 120.429C 156.746 119.65 157.636 119.26 158.638 119.26L 192.205 119.26C 194.209 119.26 196.213 120.262 198.217 122.266C 200.221 124.27 203.784 125.272 208.905 125.272C 216.587 125.272 220.428 122.322 220.428 116.421C 220.428 111.522 216.532 109.073 208.738 109.073L 188.531 109.073C 187.307 109.073 186.249 108.628 185.358 107.737C 184.468 106.846 184.022 105.789 184.022 104.564L 184.022 91.037C 184.022 87.9197 185.136 85.693 187.362 84.357L 210.575 71.665L 166.654 71.665C 165.43 71.665 164.372 71.2197 163.481 70.329C 162.591 69.4383 162.145 68.3807 162.145 67.156L 162.145 43.609C 162.145 42.3843 162.591 41.3267 163.481 40.436C 164.372 39.5453 165.43 39.1 166.654 39.1L 252.158 39.1C 253.383 39.1 254.441 39.5453 255.331 40.436C 256.222 41.3267 256.667 42.3843 256.667 43.609L 256.667 64.818C 256.667 67.7127 255.554 69.9393 253.327 71.498L 233.788 84.858C 253.828 89.868 263.848 101.391 263.848 119.427ZM 317.929 73.669L 317.929 79.514C 325.722 72.6113 334.406 69.16 343.981 69.16L 351.997 69.16C 353.222 69.16 354.279 69.6053 355.17 70.496C 356.061 71.3867 356.506 72.4443 356.506 73.669L 356.506 99.721C 356.506 100.946 356.061 102.003 355.17 102.894C 354.279 103.785 353.222 104.23 351.997 104.23L 330.454 104.23C 327.448 104.23 325.054 104.954 323.273 106.401C 321.603 107.737 320.657 109.574 320.434 111.912L 320.434 151.491C 320.434 152.716 319.989 153.773 319.098 154.664C 318.207 155.555 317.15 156 315.925 156L 284.195 156C 282.97 156 281.913 155.555 281.022 154.664C 280.131 153.773 279.686 152.716 279.686 151.491L 279.686 73.669C 279.686 72.4443 280.131 71.3867 281.022 70.496C 281.913 69.6053 282.97 69.16 284.195 69.16L 313.42 69.16C 314.645 69.16 315.702 69.6053 316.593 70.496C 317.484 71.3867 317.929 72.4443 317.929 73.669ZM 367.407 119.093L 367.407 105.9C 367.407 93.4307 370.747 83.9117 377.427 77.343C 384.107 70.7743 392.234 67.49 401.809 67.49C 411.495 67.49 419.232 70.1063 425.022 75.339L 425.022 41.939C 425.022 40.7143 425.467 39.6567 426.358 38.766C 427.248 37.8753 428.306 37.43 429.531 37.43L 460.426 37.43C 461.65 37.43 462.708 37.8753 463.599 38.766C 464.489 39.6567 464.935 40.7143 464.935 41.939L 464.935 151.491C 464.935 152.716 464.489 153.773 463.599 154.664C 462.708 155.555 461.65 156 460.426 156L 432.036 156C 430.811 156 429.753 155.555 428.863 154.664C 427.972 153.773 427.527 152.716 427.527 151.491L 427.527 146.481C 421.737 153.94 413.554 157.67 402.978 157.67C 392.401 157.67 383.828 154.553 377.26 148.318C 370.691 141.972 367.407 132.23 367.407 119.093ZM 425.022 118.091L 425.022 105.733C 424.688 100.166 421.904 97.383 416.672 97.383C 411.105 97.383 408.322 100.612 408.322 107.069L 408.322 118.091C 408.322 124.548 411.105 127.777 416.672 127.777C 422.238 127.777 425.022 124.548 425.022 118.091ZM 495.987 49.788C 506.23 41.5493 519.757 37.43 536.568 37.43C 553.38 37.43 566.851 41.605 576.982 49.955C 587.225 58.1937 592.346 69.828 592.346 84.858L 592.346 110.91C 592.346 126.163 587.281 137.797 577.149 145.813C 567.129 153.718 553.602 157.67 536.568 157.67C 519.534 157.67 505.952 153.718 495.82 145.813C 485.8 137.797 480.79 126.163 480.79 110.91L 480.79 84.858C 480.79 69.7167 485.856 58.0267 495.987 49.788ZM 527.55 121.765C 529.777 123.992 532.783 125.105 536.568 125.105C 540.354 125.105 543.36 123.992 545.586 121.765C 547.813 119.538 548.926 116.143 548.926 111.578L 548.926 83.522C 548.926 79.0687 547.813 75.7287 545.586 73.502C 543.36 71.164 540.354 69.995 536.568 69.995C 532.783 69.995 529.777 71.164 527.55 73.502C 525.324 75.7287 524.21 79.0687 524.21 83.522L 524.21 111.578C 524.21 116.143 525.324 119.538 527.55 121.765ZM 656.61 67.156L 656.61 69.16L 675.481 69.16C 676.706 69.16 677.763 69.6053 678.654 70.496C 679.545 71.3867 679.99 72.4443 679.99 73.669L 679.99 93.876C 679.99 95.1007 679.545 96.1583 678.654 97.049C 677.763 97.9397 676.706 98.385 675.481 98.385L 656.61 98.385L 656.61 151.491C 656.61 152.716 656.165 153.773 655.274 154.664C 654.383 155.555 653.326 156 652.101 156L 622.876 156C 621.651 156 620.594 155.555 619.703 154.664C 618.812 153.773 618.367 152.716 618.367 151.491L 618.367 98.385L 606.844 98.385C 605.619 98.385 604.562 97.9397 603.671 97.049C 602.78 96.1583 602.335 95.1007 602.335 93.876L 602.335 73.669C 602.335 72.4443 602.78 71.3867 603.671 70.496C 604.562 69.6053 605.619 69.16 606.844 69.16L 618.367 69.16L 618.367 66.321C 618.367 53.629 622.208 44.8337 629.89 39.935C 637.572 34.925 648.204 32.42 661.787 32.42L 677.318 32.42C 678.543 32.42 679.6 32.8653 680.491 33.756C 681.382 34.6467 681.827 35.7043 681.827 36.929L 681.827 57.136C 681.827 58.3607 681.382 59.4183 680.491 60.309C 679.6 61.1997 678.543 61.645 677.318 61.645L 663.791 61.645C 659.004 61.645 656.61 63.482 656.61 67.156ZM 789.666 39.1L 816.052 39.1C 817.277 39.1 818.334 39.5453 819.225 40.436C 820.116 41.3267 820.561 42.3843 820.561 43.609L 820.561 151.491C 820.561 152.716 820.116 153.773 819.225 154.664C 818.334 155.555 817.277 156 816.052 156L 785.825 156C 784.6 156 783.543 155.555 782.652 154.664C 781.761 153.773 781.316 152.716 781.316 151.491L 781.316 105.733L 770.294 123.769C 768.513 126.552 766.453 127.944 764.115 127.944L 752.425 127.944C 750.087 127.944 748.027 126.552 746.246 123.769L 735.224 105.733L 735.224 151.491C 735.224 152.716 734.779 153.773 733.888 154.664C 732.997 155.555 731.94 156 730.715 156L 700.488 156C 699.263 156 698.206 155.555 697.315 154.664C 696.424 153.773 695.979 152.716 695.979 151.491L 695.979 43.609C 695.979 42.3843 696.424 41.3267 697.315 40.436C 698.206 39.5453 699.263 39.1 700.488 39.1L 726.874 39.1C 729.991 39.1 732.385 40.603 734.055 43.609L 758.27 83.689L 782.485 43.609C 784.155 40.603 786.549 39.1 789.666 39.1Z"/>
<path id="path10_fill" d="M 7.515 119.761L 7.515 73.669C 7.515 72.4443 7.96033 71.3867 8.851 70.496C 9.74167 69.6053 10.7993 69.16 12.024 69.16L 43.921 69.16C 45.1457 69.16 46.2033 69.6053 47.094 70.496C 47.9847 71.3867 48.43 72.4443 48.43 73.669L 48.43 118.592C 48.43 124.715 51.2133 127.777 56.78 127.777C 62.3467 127.777 65.13 124.715 65.13 118.592L 65.13 73.669C 65.13 72.4443 65.5753 71.3867 66.466 70.496C 67.3567 69.6053 68.4143 69.16 69.639 69.16L 101.369 69.16C 102.594 69.16 103.651 69.6053 104.542 70.496C 105.433 71.3867 105.878 72.4443 105.878 73.669L 105.878 151.491C 105.878 152.716 105.433 153.773 104.542 154.664C 103.651 155.555 102.594 156 101.369 156L 72.144 156C 70.9193 156 69.8617 155.555 68.971 154.664C 68.0803 153.773 67.635 152.716 67.635 151.491L 67.635 145.98C 62.4023 153.773 53.1617 157.67 39.913 157.67C 30.7837 157.67 23.1017 154.497 16.867 148.151C 10.6323 141.694 7.515 132.23 7.515 119.761ZM 172.61 98.385L 172.61 116.755C 172.61 122.322 175.004 125.105 179.791 125.105L 194.988 125.105C 196.213 125.105 197.27 125.55 198.161 126.441C 199.052 127.332 199.497 128.389 199.497 129.614L 199.497 151.491C 199.497 152.716 199.052 153.773 198.161 154.664C 197.27 155.555 196.213 156 194.988 156L 176.117 156C 148.284 156 134.367 144.032 134.367 120.095L 134.367 98.385L 121.174 98.385C 119.949 98.385 118.892 97.9397 118.001 97.049C 117.11 96.1583 116.665 95.1007 116.665 93.876L 116.665 73.669C 116.665 72.4443 117.11 71.3867 118.001 70.496C 118.892 69.6053 119.949 69.16 121.174 69.16L 134.367 69.16L 134.367 41.939C 134.367 40.7143 134.812 39.6567 135.703 38.766C 136.594 37.8753 137.651 37.43 138.876 37.43L 168.101 37.43C 169.326 37.43 170.383 37.8753 171.274 38.766C 172.165 39.6567 172.61 40.7143 172.61 41.939L 172.61 69.16L 193.652 69.16C 194.877 69.16 195.934 69.6053 196.825 70.496C 197.716 71.3867 198.161 72.4443 198.161 73.669L 198.161 93.876C 198.161 95.1007 197.716 96.1583 196.825 97.049C 195.934 97.9397 194.877 98.385 193.652 98.385L 172.61 98.385ZM 252.812 106.568L 252.812 151.491C 252.812 152.716 252.367 153.773 251.476 154.664C 250.585 155.555 249.528 156 248.303 156L 215.738 156C 214.513 156 213.456 155.555 212.565 154.664C 211.674 153.773 211.229 152.716 211.229 151.491L 211.229 41.939C 211.229 40.7143 211.674 39.6567 212.565 38.766C 213.456 37.8753 214.513 37.43 215.738 37.43L 248.303 37.43C 249.528 37.43 250.585 37.8753 251.476 38.766C 252.367 39.6567 252.812 40.7143 252.812 41.939L 252.812 77.844C 259.158 70.9413 267.285 67.49 277.194 67.49C 287.103 67.49 295.286 70.7187 301.743 77.176C 308.2 83.6333 311.429 93.041 311.429 105.399L 311.429 151.324C 311.429 152.549 310.984 153.606 310.093 154.497C 309.202 155.388 308.145 155.833 306.92 155.833L 274.188 155.833C 272.963 155.833 271.906 155.388 271.015 154.497C 270.124 153.606 269.679 152.549 269.679 151.324L 269.679 106.568C 269.679 100.445 266.84 97.383 261.162 97.383C 255.595 97.383 252.812 100.445 252.812 106.568Z"/>
</defs>
</svg>
